<?xml version="1.0" encoding="UTF-8"?>
<svg version="1.1" xmlns="http://www.w3.org/2000/svg" width="400" height="400">

<!-- Main palette + brush outline (compound path with evenodd for hollow interior) -->
<path fill-rule="evenodd" d="M0 0 C0.2640966796874977 -0.8543261718750017 0.5281933593749955 -1.7086523437500034 0.80029296875 -2.5888671875 C2.968487595532281 -8.753705471057565 6.139832534275115 -14.448088913892697 9.125 -20.25 C9.764374999999973 -21.522304687499997 10.403750000000002 -22.794609375 11.0625 -24.10546875 C16.184972416227765 -34.072689174346785 21.385948426320397 -44.11753627610737 32 -49 C32.660000000000025 -49.33 33.31999999999999 -49.66 34 -50 C39.79211919575272 -50.474763868504326 43.022760225859145 -50.43178146261411 47 -46 C54.57211642426455 -30.9482651380248 48.52252439956226 -15.239964720429391 43.3125 -0.375 C42.99958007812501 0.5492578125000023 42.99958007812501 0.5492578125000023 41.416015625 5.2265625 C39.11891781850392 11.99999435664192 36.799187116567 18.763829307000236 34.39208984375 25.4990234375 C33.926254882812486 26.827080078124993 33.46041992187497 28.15513671875 32.98046875 29.5234375 C32.7756286621094 30.094089355468753 32.7756286621094 30.094089355468753 31.739013671875 32.98193359375 C30.036247396008548 39.93588030741394 34.26513566103989 46.01877397324762 37.1875 52.125 C54.376963019066125 88.97381985364393 66.214239499158 142.6828880439794 41.75 179.125 C40.52285356962972 180.76732659310795 39.27220513978864 182.3923249450541 38 184 C37.67708984374997 184.41701171875002 37.67708984374997 184.41701171875002 36.04296875 186.52734375 C25.992068953622777 198.6294475864542 12.861796171969388 204.67858303294088 -2 209 C-3.1666015624999773 209.34031249999998 -4.333203125000011 209.68062500000002 -5.53515625 210.03125 C-11.567463912000505 211.50022232806327 -17.02619206558819 212.0763618914113 -23.21484375 211.68359375 C-40.25887196701467 210.66460994755198 -40.25887196701467 210.66460994755198 -45.453125 214.6484375 C-50.77660629806985 223.08038515043927 -50.24686367352922 229.705079750558 -48 239 C-46.57078044653804 259.2472770073781 -55.10292490485699 275.8989311419925 -69 290 C-70.03125 291.155 -71.0625 292.31 -72.125 293.5 C-87.64043896180601 307.513944868728 -110.02442315581573 319.62695034402594 -131 322 C-128.12007985165846 318.0915369415365 -125.26081920539406 314.2879878726226 -122 310.6875 C-111.15316892081475 297.35493679850146 -107.12070537727865 283.59323449333283 -111.4375 266.9375 C-115.91504204213015 249.27817452291526 -116.62067589832844 233.0310991796468 -103.4609375 219.08984375 C-99.58134340299134 215.7952678104768 -95.23923996246504 213.40581339068615 -90.7578125 211.01953125 C-87.47551823861298 208.6159248291259 -86.87278096349777 206.9054186151451 -86 203 C-106.70438648500743 200.41711745446514 -129.2020884398943 199.74518327628897 -144 217 C-155.01617827599273 235.02857747268558 -151.37938298369176 251.16811482919746 -142.65234375 269.5078125 C-137.01661450688417 281.41878636133697 -134.988461771795 294.19109351039157 -142 306 C-149.2631914206891 316.0694244695917 -157.97114717829825 318.40128801113894 -170 318 C-207.26130904864283 313.08675613691116 -243.10950343200017 294.86342333162895 -270.48828125 269.3203125 C-272.5748134050989 267.3927851281046 -274.7467679689056 265.55822326376045 -276.9375 263.75 C-323.71563299828455 220.57018492466045 -341.8401041002146 152.4013900534123 -329.3125 91 C-320.51532196872733 54.22650212662849 -301.61909031342293 23.41743053832124 -275 -3 C-273.8901171875 -4.140820312499997 -272.78023437499996 -5.281640624999994 -271.63671875 -6.45703125 C-194.88909974050097 -81.22619391553772 -74.64125829748423 -66.86612722482961 0 0 Z M-178 -45 C-179.564921875 -44.6480859375 -181.12984375 -44.296171875 -182.7421875 -43.93359375 C-244.82184614398997 -28.690371246654003 -299.2652669728044 17.195317370887366 -318.05078125 79.41796875 C-331.59086344280297 130.5136698644047 -325.9590562224413 187.41946878758006 -294 231 C-293.3026171875 231.98097656250002 -292.605234375 232.96195312499998 -291.88671875 233.97265625 C-286.4320296108218 241.48133135277635 -280.4078224867774 248.29535739803129 -274 255 C-273.5372265625 255.495 -273.5372265625 255.495 -271.1953125 258 C-245.56185424698467 284.67546875110537 -200.4591850014181 312.13197655986124 -162 310 C-154.0735933581301 307.7522130418578 -148.70291145488477 303.96647586702875 -146 296 C-144.97374080496328 285.1672640523901 -147.54357389140827 277.78316602192024 -152 268 C-159.92195795214712 249.85893097679048 -162.45120428870376 233.03960750523157 -152.25 215.1875 C-136.47761066393437 194.86538297083848 -117.3042271641794 193.09468494803917 -93 194 C-91.4577978515625 194.3250048828125 -89.915595703125 194.650009765625 -88.32666015625 194.98486328125 C-87.61276123046875 194.98736083984375 -87.61276123046875 194.98736083984375 -84 195 C-82.23486328125 191.93017578125 -82.23486328125 191.93017578125 -81.3203125 187.4453125 C-80.9555078125 185.81134521484375 -80.590703125 184.1773779296875 -80.21484375 182.493896484375 C-79.85519531249997 180.72216064453124 -79.495546875 178.9504248046875 -79.125 177.125 C-75.6424577213939 161.98041631762703 -71.55772713798041 148.4170728454017 -64.7138671875 134.501953125 C-62.68637358376242 130.3591656247134 -60.721259506460285 126.1891439354481 -58.7578125 122.015625 C-55.66787975781813 115.45343183767028 -52.5621571526832 108.89915493147055 -49.44140625 102.3515625 C-45.59842301362397 94.2779302679896 -41.81295844789378 86.17945353230414 -38.0625 78.0625 C-29.288417597203704 59.09722473015972 -20.46405036771165 40.11844103451904 -10.6953125 21.640625 C-9.95023437499998 20.212343750000002 -9.205156250000016 18.784062500000005 -8.4375 17.3125 C-7.755585937499973 16.029882812500006 -7.073671875000002 14.747265624999997 -6.37109375 13.42578125 C-5 10 -5 10 -6 5 C-8.592389693283508 2.459458100582168 -11.171686596438235 0.259352398180539 -14 -2 C-15.090546874999973 -2.9126562499999977 -16.181093750000002 -3.8253124999999955 -17.3046875 -4.765625 C-61.463191925397666 -41.175385519883896 -121.51835708662023 -57.76218610293245 -178 -45 Z M40 -41 C43.9772 -33.0457 42.5197 -24.848 39.8438 -16.7031 C39.3886 -15.3003 38.9335 -13.8975 38.4646 -12.4521 C37.9813 -10.9829 37.498 -9.51373 37 -8 C36.0522 -5.03162 35.1056 -2.06286 34.1602 0.90625 C23.6814 33.4471 12.4702 65.7159 0.572266 97.7646 C-1.26313 102.709 -3.09214 107.655 -4.92188 112.602 C-8.92343 123.41 -12.957 134.207 -17 145 C-17.5097 146.368 -18.0193 147.736 -18.5444 149.146 C-19.7883 152.477 -21.0466 155.802 -22.3125 159.125 C-22.9686 160.86 -23.6248 162.595 -24.3008 164.383 C-26 168 -26 168 -29 169 C-33.0956 167.22 -37.0686 165.362 -41.0625 163.375 C-42.1576 162.84 -43.2526 162.305 -44.3809 161.754 C-46.5505 160.692 -48.7143 159.617 -50.8716 158.53 C-52.923 157.527 -55.0029 156.579 -57.1089 155.696 C-59.9336 154.477 -59.9336 154.477 -64 152 C-63.9375 149.375 -63.9375 149.375 -62 146 C-61.2575 144.329 -60.515 142.659 -59.75 140.938 C-58.8363 138.957 -57.9195 136.978 -57 135 C-56.0049 132.845 -55.0101 130.69 -54.0156 128.535 C-53.5122 127.446 -53.0089 126.357 -52.4902 125.235 C-50.2224 120.312 -47.9868 115.375 -45.75 110.438 C-44.1681 106.958 -42.584 103.479 -41 100 C-40.4431 98.7715 -39.8863 97.543 -39.3125 96.2773 C-35.5227 88.025 -31.4598 79.9214 -27.375 71.8125 C-21.9041 60.9512 -16.6638 50.0043 -11.6147 38.9407 C-7.6093 30.1901 -3.34162 21.5882 1 13 C1.82774 11.3555 2.65548 9.71096 3.5083 8.0166 C5.74618 3.5787 7.99226 -0.854856 10.2461 -5.28467 C11.1719 -7.10772 12.0947 -8.93229 13.0146 -10.7583 C14.3696 -13.4467 15.7355 -16.1297 17.1016 -18.8125 C17.899 -20.3864 18.6965 -21.9604 19.5181 -23.582 C30.6205 -43.3449 30.6205 -43.3449 40 -41 Z M25 50 C30.13 51.71 31.0854 57.2803 33 62 C33.562 63.3574 34.1241 64.7148 34.7031 66.1133 C49.2182 103.064 55.1144 148.809 29.875 182.125 C12.5871 199.413 -11.957 206.062 -36 204 C-37.8011 200.398 -34.6408 198.06 -32.6704 195.024 C-23.7836 181.318 -17.7002 167.254 -12 152 C-11.3887 150.378 -10.7773 148.756 -10.1475 147.085 C-5.37439 134.411 -0.675263 121.711 4 109 C4.27127 108.264 4.27127 108.264 5.64404 104.541 C8.78028 96.0334 11.8998 87.5203 15 79 C15.4349 77.805 15.8698 76.6101 16.3179 75.3789 C17.5899 71.8787 18.8584 68.3772 20.125 64.875 C20.5039 63.8307 20.8828 62.7864 21.2732 61.7104 C22.6732 57.8255 23.9977 54.0091 25 50 Z M-68.3125 222.875 C-66.8236 223.553 -65.3348 224.231 -63.8008 224.93 C-57.2997 228.471 -56.2424 232.408 -55.7617 239.531 C-55.2422 267.309 -72.0607 285.856 -94.6016 300.012 C-98.6068 302.355 -102.687 304.29 -107 306 C-106 301 -106 301 -103.938 295.875 C-99.8649 283.761 -101.117 271.164 -105.035 259.215 C-108.907 246.313 -106.557 235.578 -97.9375 225.375 C-86.9768 215.98 -80.7591 217.134 -68.3125 222.875 Z M-64.6172 160.637 C-59.6936 162.492 -54.9127 164.637 -50.125 166.812 C-49.1698 167.239 -48.2146 167.665 -47.2305 168.104 C-35.0328 173.633 -35.0328 173.633 -31 177 C-31.6523 180.242 -31.6523 180.242 -33.9375 183.875 C-34.339 184.538 -34.339 184.538 -36.3711 187.891 C-36.8049 188.569 -36.8049 188.569 -39 192 C-40.5037 194.54 -42.0038 197.081 -43.5 199.625 C-44.2489 200.843 -44.9979 202.061 -45.7695 203.316 C-47.2808 205.812 -48.7354 208.343 -50.1367 210.902 C-50.8135 212.11 -51.4902 213.318 -52.1875 214.562 C-52.7792 215.657 -53.3709 216.751 -53.9805 217.879 C-56 220 -56 220 -58.7188 219.578 C-59.8016 219.057 -60.8844 218.537 -62 218 C-63.3368 217.416 -64.6735 216.832 -66.0508 216.23 C-67.4571 215.556 -68.8635 214.882 -70.3125 214.188 C-71.7318 213.521 -73.151 212.855 -74.6133 212.168 C-78 210 -78 210 -79 205 C-78.3514 201.618 -77.574 198.26 -76.7266 194.922 C-76.4834 193.955 -76.2402 192.988 -75.9896 191.991 C-75.4749 189.952 -74.9551 187.915 -74.4307 185.879 C-73.625 182.75 -72.8346 179.618 -72.0469 176.484 C-67.8134 159.783 -67.8134 159.783 -64.6172 160.637 Z" fill="#000000" transform="translate(338,70)"/>

<!-- Small paint dot (solid red) -->
<path d="M0 0 C5.771967628462207 8.053908318784465 7.122756532899999 16.262254433029412 4.625 25.8125 C0.06540700277588485 35.078769639519976 -6.185778756629148 40.38850639036204 -16.25 42.625 C-26.86700198310058 42.9516769840954 -35.483518112897116 38.817305157715595 -41.3125 29.75 C-45.95355708766621 20.30213378582235 -46.10056833513899 10.666753921700604 -40.3125 1.75 C-37.875 -1 -37.875 -1 -35.3125 -3.25 C-34.56999999999999 -3.971874999999997 -33.8275 -4.693749999999994 -33.0625 -5.4375 C-21.552709495933897 -13.023498286770831 -9.083258055745887 -8.911875828278994 0 0 Z" fill="#E74C3C" stroke="#000000" stroke-width="2" transform="translate(117.3125,99.25)"/>

<!-- Large paint dot (solid blue) -->
<path d="M0 0 C10.126399796603437 12.9923620031893 12.268834246059782 26.130240465410623 7.6875 41.8125 C1.5642854597949736 55.83143855257474 -9.503684811053859 65.57050320195069 -24.6875 68.25 C-40.96192753796191 69.1156610392533 -54.17882051841059 64.0567494670546 -64.03125 50.8125 C-72.10419017609814 38.32229067094249 -73.81041641515085 22.412968966366577 -67.23828125 8.8984375 C-51.867030312035894 -17.352716494810224 -21.44834337612673 -21.811874619789904 0 0 Z" fill="#3B82F6" stroke="#000000" stroke-width="2" transform="translate(283.6875,66.75)"/>

<!-- Medium paint dot (solid amber) -->
<path d="M0 0 C8.07409175780856 11.12430419964737 10.781993311225392 23.21363745773141 5.44921875 36.29296875 C-0.1725511090144778 46.794010562121386 -8.64466254147564 52.81761163562338 -20.375 55 C-35.366530437048254 55 -45.911155851786646 49.07808686600829 -53.8125 36 C-58.21692018853915 24.87304373421688 -56.99176499292048 12.008438050060363 -50.046875 2.2578125 C-36.1888970977902 -14.071343279876587 -15.323220080286035 -15.851606979606238 0 0 Z" fill="#F59E0B" stroke="#000000" stroke-width="2" transform="translate(190,57)"/>

<!-- Letter E -->
<path d="M0 0 C1.2987304687499943 0.0032226562499886313 2.5974609374999886 0.006445312500005684 3.935546875 0.009765625 C5.2935742187499955 0.018144531249987494 6.651601562499991 0.02652343750000341 8.05078125 0.03515625 C9.42041015625 0.03966796874999545 10.7900390625 0.044179687499990905 12.201171875 0.048828125 C15.588585198159251 0.06063095887859049 18.975911583167488 0.07709606432962346 22.36328125 0.09765625 C23.12890625 4.546875 23.12890625 4.546875 22.36328125 9.09765625 C17.927982932206135 9.894319071011353 14.54759350650869 10.082953269874935 10.11328125 9.91015625 C-2.169141262234916 9.630078762234916 -2.169141262234916 9.630078762234916 -6.63671875 14.09765625 C-6.987334842640877 19.006281546972332 -6.417442521555273 20.488691708186877 -2.51171875 23.53515625 C3.295558541182743 25.396463074097028 8.213839430649841 25.361231961641323 14.265625 25.140625 C17.36328125 25.09765625 17.36328125 25.09765625 18.36328125 26.09765625 C19.23828125 30.09765625 19.23828125 30.09765625 18.36328125 34.09765625 C12.42578125 34.91015625 12.42578125 34.91015625 8.84375 34.97265625 C1.9580952636354425 35.21995249193452 -2.5036193277945955 36.58685702039281 -6.63671875 42.09765625 C-7.200099031690144 49.534275968309856 -7.200099031690144 49.534275968309856 -4.63671875 52.09765625 C-1.9470214843750284 52.400634765625 -1.9470214843750284 52.400634765625 1.4296875 52.4765625 C2.0332910156249966 52.49364257812499 2.0332910156249966 52.49364257812499 5.087890625 52.580078125 C6.354394531249994 52.60650390625 7.620898437499989 52.632929687499995 8.92578125 52.66015625 C22.24334881756758 52.97772381756758 22.24334881756758 52.97772381756758 23.36328125 54.09765625 C23.604660560344826 60.856276939655174 23.604660560344826 60.856276939655174 22.36328125 62.09765625 C17.140572334964702 62.41040622632778 11.906689978940307 62.37623336589533 6.67578125 62.41015625 C5.940048828124986 62.424658203125006 5.940048828124986 62.424658203125006 2.216796875 62.498046875 C1.506845703125009 62.50223632812501 1.506845703125009 62.50223632812501 -2.0859375 62.5234375 C-3.3887768554687483 62.538020019531245 -4.691616210937497 62.55260253906249 -6.033935546875 62.567626953125 C-11.289905449161509 61.882003719276554 -14.45053005277478 59.75832042611529 -17.51171875 55.47265625 C-19.762966631444357 48.71891260566696 -19.742622412143078 42.044137415862394 -15.63671875 36.09765625 C-12.507518501484853 33.128927809101015 -10.885441619417918 32.159836967354465 -6.63671875 31.09765625 C-7.63671875 29.09765625 -7.63671875 29.09765625 -11.01171875 27.28515625 C-16.252973038281624 24.122330386381776 -17.456540832080208 20.99854583959896 -18.63671875 15.09765625 C-17.74053550653825 8.04021320773873 -15.358479745124427 5.213308895615825 -9.63671875 1.09765625 C-6.219202218195562 -0.041515927268136465 -3.6018393776116113 -0.015728556234108737 0 0 Z" fill="#000000" transform="translate(129.63671875,168.90234375)"/>

<!-- Letter F -->
<path d="M0 0 C1.2052734375000114 0.0032226562499886313 2.4105468749999943 0.006445312500005684 3.65234375 0.009765625 C4.906601562499986 0.018144531249987494 6.160859375000001 0.02652343750000341 7.453125 0.03515625 C8.087988281250006 0.037412109374997726 8.087988281250006 0.037412109374997726 11.30078125 0.048828125 C14.434915947903306 0.06061058627031457 17.569026417433975 0.0785458927892364 20.703125 0.09765625 C21.4765625 4.5390625 21.4765625 4.5390625 20.703125 9.09765625 C16.215687566542414 9.951633127712995 12.821124839270283 10.174644807101515 8.328125 10.03515625 C-4.13190762642742 9.932688876427392 -4.13190762642742 9.932688876427392 -6.296875 12.09765625 C-7.373004343001327 17.478302965006606 -7.938467017680523 20.836767884733064 -6.296875 26.09765625 C-1.9394218238070664 26.734245464929586 1.436854012422856 26.857922684874183 5.765625 26.59765625 C10.054053461321132 26.340689931797613 13.392635658613244 26.451890056533813 17.703125 27.09765625 C17.703125 30.06765625 17.703125 33.03765625 17.703125 36.09765625 C9.453125 36.09765625 1.203125 36.09765625 -7.296875 36.09765625 C-7.2852734374999955 37.96292968750001 -7.273671874999991 39.828203125000016 -7.26171875 41.75 C-7.252342748372968 44.17838442140081 -7.243242347065376 46.60676991795464 -7.234375 49.03515625 C-7.2259960937500125 50.26685546875001 -7.217617187499997 51.49855468749999 -7.208984375 52.767578125 C-7.18359375 61.984375 -7.18359375 61.984375 -8.296875 63.09765625 C-17.053631756756772 63.34089949324323 -17.053631756756772 63.34089949324323 -18.296875 62.09765625 C-18.43576707359921 58.33760834857674 -18.51020202150019 54.59735793423343 -18.53515625 50.8359375 C-18.543227996826175 49.69738815307616 -18.55129974365235 48.55883880615235 -18.559616088867188 47.38578796386719 C-18.573478989905084 44.9688774879875 -18.584191215347147 42.55194725117934 -18.592041015625 40.135009765625 C-18.60922149847852 36.443141781172415 -18.65308552954889 32.75217641501308 -18.697265625 29.060546875 C-18.707394826005867 26.71485035126568 -18.715910215812244 24.369146193166102 -18.72265625 22.0234375 C-18.740164337158205 20.920105743408214 -18.75767242431641 19.8167739868164 -18.775711059570313 18.680007934570313 C-18.751089606519628 9.949308487142616 -17.201855275187626 6.276391456390712 -10.296875 1.09765625 C-6.585369152014863 0.16977978800372284 -3.791848578575525 -0.017886078200831435 0 0 Z" fill="#000000" transform="translate(232.296875,168.90234375)"/>

<!-- Letter T -->
<path d="M0 0 C16.170000000000016 0 32.34 0 49 0 C49 2.969999999999999 49 5.939999999999998 49 9 C42.400000000000006 9 35.80000000000001 9 29 9 C29.04713134765626 10.600290527343759 29.094262695312494 12.20058105468749 29.142822265625 13.849365234375 C29.30518782785788 19.762156683988508 29.40884569811567 25.674750113712292 29.494384765625 31.589111328125 C29.53976918837452 34.15324987938112 29.60127739630397 36.71715407803123 29.678955078125 39.280517578125 C29.78761288564496 42.95712849009155 29.839044527268555 46.630676008868164 29.87890625 50.30859375 C29.925357818603516 51.46274276733399 29.97180938720703 52.616891784667985 30.019668579101563 53.80601501464844 C30.021728515625 57.021240234375 30.021728515625 57.021240234375 29 62 C24.507568359375 63.293212890625 24.507568359375 63.293212890625 20 63 C17.80880308352539 60.80880308352539 19.088669022316964 56.90187270543245 19.195938110351563 53.984130859375 C19.362813237346614 49.24441224286198 19.42155547935846 44.504761101444245 19.486083984375 39.7626953125 C19.537044288830657 37.253429458599896 19.618460357299057 34.74459821442045 19.730224609375 32.2373046875 C20.058657473160167 24.53912175391028 20.354917379724867 17.39213053154498 18 10 C12.824661964754398 8.073607112340625 9.319779416517576 8.375456159871703 3.882568359375 9.18359375 C2.6013208007812523 9.123007812499992 1.3200732421875045 9.062421875000013 0 9 C0 6.030000000000001 0 3.0600000000000023 0 0 Z" fill="#000000" transform="translate(158,169)"/>

</svg>
